<?xml version="1.0" encoding="UTF-8"?>
<svg width="256" height="256" viewBox="0 0 256 256" fill="none" xmlns="http://www.w3.org/2000/svg">
    <rect width="256" height="256" rx="40" fill="#4CAF50"/>
    <path d="M128 48C84.8 48 50 82.8 50 126C50 169.2 84.8 204 128 204C171.2 204 206 169.2 206 126C206 82.8 171.2 48 128 48ZM128 188C93.6 188 66 160.4 66 126C66 91.6 93.6 64 128 64C162.4 64 190 91.6 190 126C190 160.4 162.4 188 128 188Z" fill="white"/>
    <path d="M128 72C107.6 72 91 88.6 91 109C91 129.4 107.6 146 128 146C148.4 146 165 129.4 165 109C165 88.6 148.4 72 128 72ZM128 130C116.8 130 107.8 121 107.8 109.8C107.8 98.6 116.8 89.6 128 89.6C139.2 89.6 148.2 98.6 148.2 109.8C148.2 121 139.2 130 128 130Z" fill="white"/>
    <path d="M128 94C123.6 94 120 97.6 120 102V110C120 114.4 123.6 118 128 118C132.4 118 136 114.4 136 110V102C136 97.6 132.4 94 128 94Z" fill="white"/>
    <path d="M128 122C126.9 122 126 122.9 126 124V130C126 131.1 126.9 132 128 132C129.1 132 130 131.1 130 130V124C130 122.9 129.1 122 128 122Z" fill="white"/>
    <path d="M128 32C132.4 32 136 35.6 136 40V56C136 60.4 132.4 64 128 64C123.6 64 120 60.4 120 56V40C120 35.6 123.6 32 128 32Z" fill="#81C784"/>
    <path d="M40 120H56C60.4 120 64 123.6 64 128C64 132.4 60.4 136 56 136H40C35.6 136 32 132.4 32 128C32 123.6 35.6 120 40 120Z" fill="#81C784"/>
    <path d="M61.6 54.2L72.6 65.2C76 68.6 76 74.4 72.6 77.8C69.2 81.2 63.4 81.2 60 77.8L49 66.8C45.6 63.4 45.6 57.6 49 54.2C52.4 50.8 58.2 50.8 61.6 54.2Z" fill="#81C784"/>
    <path d="M200 120H216C220.4 120 224 123.6 224 128C224 132.4 220.4 136 216 136H200C195.6 136 192 132.4 192 128C192 123.6 195.6 120 200 120Z" fill="#81C784"/>
    <path d="M196 66.8L185 77.8C181.6 81.2 175.8 81.2 172.4 77.8C169 74.4 169 68.6 172.4 65.2L183.4 54.2C186.8 50.8 192.6 50.8 196 54.2C199.4 57.6 199.4 63.4 196 66.8Z" fill="#81C784"/>
</svg>
